<svg width="24" height="24" viewBox="0 0 24 24" fill="none" xmlns="http://www.w3.org/2000/svg">
<path fill-rule="evenodd" clip-rule="evenodd" d="M10 8.67H3.55V6.135C3.55 5.64 3.955 5.235 4.45 5.235H6.445V6.315C6.445 6.81 6.85 7.215 7.345 7.215C7.84 7.215 8.245 6.81 8.245 6.315V5.235H13.255V6.315C13.255 6.81 13.66 7.215 14.155 7.215C14.65 7.215 15.055 6.81 15.055 6.315V5.235H17.05C17.545 5.235 17.95 5.64 17.95 6.135V6.855C17.95 7.35 18.355 7.755 18.85 7.755C19.345 7.755 19.75 7.35 19.75 6.855V6.135C19.75 4.65 18.535 3.435 17.05 3.435H15.055V2.4C15.055 1.905 14.65 1.5 14.155 1.5C13.66 1.5 13.255 1.905 13.255 2.4V3.435H8.245V2.4C8.245 1.905 7.84 1.5 7.345 1.5C6.85 1.5 6.445 1.905 6.445 2.4V3.435H4.45C2.965 3.435 1.75 4.65 1.75 6.135V16.815C1.75 18.3 2.965 19.515 4.45 19.515H7.195C7.69 19.515 8.095 19.11 8.095 18.615C8.095 18.12 7.69 17.715 7.195 17.715H4.45C3.955 17.715 3.55 17.31 3.55 16.815V10.47H10C10.495 10.47 10.9 10.065 10.9 9.57C10.9 9.075 10.495 8.67 10 8.67ZM16.75 10.4854C13.435 10.4854 10.75 13.1854 10.75 16.4854C10.75 19.7854 13.45 22.4854 16.75 22.4854C20.05 22.4854 22.75 19.7854 22.75 16.4854C22.75 13.1854 20.05 10.4854 16.75 10.4854ZM16.75 20.7004C14.425 20.7004 12.55 18.8104 12.55 16.5004C12.55 14.1904 14.44 12.3004 16.75 12.3004C19.06 12.3004 20.965 14.1904 20.965 16.5004C20.965 18.8104 19.075 20.7004 16.75 20.7004ZM17.635 15.6001H18.7C19.195 15.6001 19.6 16.0051 19.6 16.5001C19.6 16.9951 19.195 17.4001 18.7 17.4001H16.735C16.24 17.4001 15.835 16.9951 15.835 16.5001V14.5201C15.835 14.0251 16.24 13.6201 16.735 13.6201C17.23 13.6201 17.635 14.0251 17.635 14.5201V15.6001Z" fill="#3B4854"/>
</svg>
