<svg width="34" height="34" viewBox="0 0 34 34" fill="none" xmlns="http://www.w3.org/2000/svg">
<path d="M2.17651 33.0001H29.353C31.353 33.0001 32.8824 31.4707 32.8824 29.4707V2.41187" stroke="#12344D" stroke-width="1.6" stroke-linecap="round" stroke-linejoin="round"/>
<path d="M2.05882 1H28.4118C29 1 29.4706 1.47059 29.4706 2.05882V28.4118C29.4706 29 29 29.4706 28.4118 29.4706H2.05882C1.47059 29.4706 1 29 1 28.4118V2.05882C1 1.47059 1.47059 1 2.05882 1Z" stroke="#12344D" stroke-width="1.6" stroke-linecap="round" stroke-linejoin="round"/>
<path d="M15.6471 7.58813H6.23535C5.68307 7.58813 5.23535 8.03585 5.23535 8.58813V9.52931C5.23535 10.0816 5.68307 10.5293 6.23535 10.5293H15.6471C16.1994 10.5293 16.6471 10.0816 16.6471 9.52931V8.58813C16.6471 8.03585 16.1994 7.58813 15.6471 7.58813Z" fill="#448EE1" fill-opacity="0.3" stroke="#448EE1" stroke-linecap="round" stroke-linejoin="round"/>
<path d="M15.6471 13.7058H6.23535C5.68307 13.7058 5.23535 14.1535 5.23535 14.7058V15.647C5.23535 16.1993 5.68307 16.647 6.23535 16.647H15.6471C16.1994 16.647 16.6471 16.1993 16.6471 15.647V14.7058C16.6471 14.1535 16.1994 13.7058 15.6471 13.7058Z" fill="#448EE1" fill-opacity="0.3" stroke="#448EE1" stroke-linecap="round" stroke-linejoin="round"/>
<path d="M23.0589 19.8235H6.23535C5.68307 19.8235 5.23535 20.2712 5.23535 20.8235V21.7647C5.23535 22.3169 5.68307 22.7647 6.23535 22.7647H23.0589C23.6112 22.7647 24.0589 22.3169 24.0589 21.7647V20.8235C24.0589 20.2712 23.6112 19.8235 23.0589 19.8235Z" fill="#448EE1" fill-opacity="0.3" stroke="#448EE1" stroke-linecap="round" stroke-linejoin="round"/>
</svg>
