<svg width="108" height="102" viewBox="0 0 108 102" fill="none" xmlns="http://www.w3.org/2000/svg">
<mask id="mask0_6787_1670" style="mask-type:alpha" maskUnits="userSpaceOnUse" x="6" y="0" width="102" height="102">
<path d="M57.3984 101.934C85.2878 101.934 107.897 79.3248 107.897 51.4354C107.897 23.546 85.2878 0.937164 57.3984 0.937164C29.509 0.937164 6.90015 23.546 6.90015 51.4354C6.90015 79.3248 29.509 101.934 57.3984 101.934Z" fill="url(#paint0_linear_6787_1670)"/>
</mask>
<g mask="url(#mask0_6787_1670)">
<path d="M57.0818 101.344C85.1459 101.344 107.896 78.8668 107.896 51.1403C107.896 23.4138 85.1459 0.937103 57.0818 0.937103C29.0177 0.937103 6.26724 23.4138 6.26724 51.1403C6.26724 78.8668 29.0177 101.344 57.0818 101.344Z" fill="url(#paint1_linear_6787_1670)"/>
<path d="M75.0834 27.9243C72.6458 27.9243 70.6697 29.9003 70.6697 32.3379V155.455H198.201V27.9243H75.0834ZM197.826 35.852H190.21V28.2364H197.826V35.852ZM134.591 83.5434V75.9278H142.207V83.5434H134.591ZM142.207 83.918V91.5336H134.591V83.918H142.207ZM134.279 83.5434H126.663V75.9278H134.279V83.5434ZM134.279 83.918V91.5336H126.663V83.918H134.279ZM126.289 91.5336H118.673V83.918H126.289V91.5336ZM126.289 91.8457V99.4614H118.673V91.8457H126.289ZM126.663 91.8457H134.279V99.4614H126.663V91.8457ZM134.279 99.7735V107.389H126.663V99.7735H134.279ZM134.591 99.7735H142.207V107.389H134.591V99.7735ZM134.591 99.4614V91.8457H142.207V99.4614H134.591ZM142.519 91.8457H150.135V99.4614H142.519V91.8457ZM142.519 91.5336V83.918H150.135V91.5336H142.519ZM142.519 83.5434V75.9278H150.135V83.5434H142.519ZM142.519 75.6157V68H150.135V75.6157H142.519ZM142.207 75.6157H134.591V68H142.207V75.6157ZM134.279 75.6157H126.663V68H134.279V75.6157ZM126.289 75.6157H118.673V68H126.289V75.6157ZM126.289 75.9278V83.5434H118.673V75.9278H126.289ZM118.361 83.5434H110.745V75.9278H118.361V83.5434ZM118.361 83.918V91.5336H110.745V83.918H118.361ZM118.361 91.8457V99.4614H110.745V91.8457H118.361ZM118.361 99.7735V107.389H110.745V99.7735H118.361ZM118.673 99.7735H126.289V107.389H118.673V99.7735ZM126.289 107.764V115.379H118.673V107.764H126.289ZM126.663 107.764H134.279V115.379H126.663V107.764ZM134.591 107.764H142.207V115.379H134.591V107.764ZM142.519 107.764H150.135V115.379H142.519V107.764ZM142.519 107.389V99.7735H150.135V107.389H142.519ZM150.509 99.7735H158.125V107.389H150.509V99.7735ZM150.509 99.4614V91.8457H158.125V99.4614H150.509ZM150.509 91.5336V83.918H158.125V91.5336H150.509ZM150.509 83.5434V75.9278H158.125V83.5434H150.509ZM150.509 75.6157V68H158.125V75.6157H150.509ZM150.509 67.6879V60.0723H158.125V67.6879H150.509ZM150.135 67.6879H142.519V60.0723H150.135V67.6879ZM142.207 67.6879H134.591V60.0723H142.207V67.6879ZM134.279 67.6879H126.663V60.0723H134.279V67.6879ZM126.289 67.6879H118.673V60.0723H126.289V67.6879ZM118.361 67.6879H110.745V60.0723H118.361V67.6879ZM118.361 68V75.6157H110.745V68H118.361ZM110.433 75.6157H102.818V68H110.433V75.6157ZM110.433 75.9278V83.5434H102.818V75.9278H110.433ZM110.433 83.918V91.5336H102.818V83.918H110.433ZM110.433 91.8457V99.4614H102.818V91.8457H110.433ZM110.433 99.7735V107.389H102.818V99.7735H110.433ZM110.433 107.764V115.379H102.818V107.764H110.433ZM110.745 107.764H118.361V115.379H110.745V107.764ZM118.361 115.691V123.307H110.745V115.691H118.361ZM118.673 115.691H126.289V123.307H118.673V115.691ZM126.663 115.691H134.279V123.307H126.663V115.691ZM134.591 115.691H142.207V123.307H134.591V115.691ZM142.519 115.691H150.135V123.307H142.519V115.691ZM150.509 115.691H158.125V123.307H150.509V115.691ZM150.509 115.379V107.764H158.125V115.379H150.509ZM158.437 107.764H166.053V115.379H158.437V107.764ZM158.437 107.389V99.7735H166.053V107.389H158.437ZM158.437 99.4614V91.8457H166.053V99.4614H158.437ZM158.437 91.5336V83.918H166.053V91.5336H158.437ZM158.437 83.5434V75.9278H166.053V83.5434H158.437ZM158.437 75.6157V68H166.053V75.6157H158.437ZM158.437 67.6879V60.0723H166.053V67.6879H158.437ZM158.437 59.6977V52.0821H166.053V59.6977H158.437ZM158.125 59.6977H150.509V52.0821H158.125V59.6977ZM150.135 59.6977H142.519V52.0821H150.135V59.6977ZM142.207 59.6977H134.591V52.0821H142.207V59.6977ZM134.279 59.6977H126.663V52.0821H134.279V59.6977ZM126.289 59.6977H118.673V52.0821H126.289V59.6977ZM118.361 59.6977H110.745V52.0821H118.361V59.6977ZM110.433 59.6977H102.818V52.0821H110.433V59.6977ZM110.433 60.0723V67.6879H102.818V60.0723H110.433ZM102.443 67.6879H94.8275V60.0723H102.443V67.6879ZM102.443 68V75.6157H94.8275V68H102.443ZM102.443 75.9278V83.5434H94.8275V75.9278H102.443ZM102.443 83.918V91.5336H94.8275V83.918H102.443ZM102.443 91.8457V99.4614H94.8275V91.8457H102.443ZM102.443 99.7735V107.389H94.8275V99.7735H102.443ZM102.443 107.764V115.379H94.8275V107.764H102.443ZM102.443 115.691V123.307H94.8275V115.691H102.443ZM102.818 115.691H110.433V123.307H102.818V115.691ZM110.433 123.619V131.235H102.818V123.619H110.433ZM110.745 123.619H118.361V131.235H110.745V123.619ZM118.673 123.619H126.289V131.235H118.673V123.619ZM126.663 123.619H134.279V131.235H126.663V123.619ZM134.591 123.619H142.207V131.235H134.591V123.619ZM142.519 123.619H150.135V131.235H142.519V123.619ZM150.509 123.619H158.125V131.235H150.509V123.619ZM158.437 123.619H166.053V131.235H158.437V123.619ZM158.437 123.307V115.691H166.053V123.307H158.437ZM166.365 115.691H173.98V123.307H166.365V115.691ZM166.365 115.379V107.764H173.98V115.379H166.365ZM166.365 107.389V99.7735H173.98V107.389H166.365ZM166.365 99.4614V91.8457H173.98V99.4614H166.365ZM166.365 91.5336V83.918H173.98V91.5336H166.365ZM166.365 83.5434V75.9278H173.98V83.5434H166.365ZM166.365 75.6157V68H173.98V75.6157H166.365ZM166.365 67.6879V60.0723H173.98V67.6879H166.365ZM166.365 59.6977V52.0821H173.98V59.6977H166.365ZM166.365 51.77V44.1543H173.98V51.77H166.365ZM166.053 51.77H158.437V44.1543H166.053V51.77ZM158.125 51.77H150.509V44.1543H158.125V51.77ZM150.135 51.77H142.519V44.1543H150.135V51.77ZM142.207 51.77H134.591V44.1543H142.207V51.77ZM134.279 51.77H126.663V44.1543H134.279V51.77ZM126.289 51.77H118.673V44.1543H126.289V51.77ZM118.361 51.77H110.745V44.1543H118.361V51.77ZM110.433 51.77H102.818V44.1543H110.433V51.77ZM102.443 51.77H94.8275V44.1543H102.443V51.77ZM102.443 52.0821V59.6977H94.8275V52.0821H102.443ZM94.5154 59.6977H86.8997V52.0821H94.5154V59.6977ZM94.5154 60.0723V67.6879H86.8997V60.0723H94.5154ZM94.5154 68V75.6157H86.8997V68H94.5154ZM94.5154 75.9278V83.5434H86.8997V75.9278H94.5154ZM94.5154 83.918V91.5336H86.8997V83.918H94.5154ZM94.5154 91.8457V99.4614H86.8997V91.8457H94.5154ZM94.5154 99.7735V107.389H86.8997V99.7735H94.5154ZM94.5154 107.764V115.379H86.8997V107.764H94.5154ZM94.5154 115.691V123.307H86.8997V115.691H94.5154ZM94.5154 123.619V131.235H86.8997V123.619H94.5154ZM94.8275 123.619H102.443V131.235H94.8275V123.619ZM102.443 131.609V139.225H94.8275V131.609H102.443ZM102.818 131.609H110.433V139.225H102.818V131.609ZM110.745 131.609H118.361V139.225H110.745V131.609ZM118.673 131.609H126.289V139.225H118.673V131.609ZM126.663 131.609H134.279V139.225H126.663V131.609ZM134.591 131.609H142.207V139.225H134.591V131.609ZM142.519 131.609H150.135V139.225H142.519V131.609ZM150.509 131.609H158.125V139.225H150.509V131.609ZM158.437 131.609H166.053V139.225H158.437V131.609ZM166.365 131.609H173.98V139.225H166.365V131.609ZM166.365 131.235V123.619H173.98V131.235H166.365ZM174.355 123.619H181.97V131.235H174.355V123.619ZM174.355 123.307V115.691H181.97V123.307H174.355ZM174.355 115.379V107.764H181.97V115.379H174.355ZM174.355 107.389V99.7735H181.97V107.389H174.355ZM174.355 99.4614V91.8457H181.97V99.4614H174.355ZM174.355 91.5336V83.918H181.97V91.5336H174.355ZM174.355 83.5434V75.9278H181.97V83.5434H174.355ZM174.355 75.6157V68H181.97V75.6157H174.355ZM174.355 67.6879V60.0723H181.97V67.6879H174.355ZM174.355 59.6977V52.0821H181.97V59.6977H174.355ZM174.355 51.77V44.1543H181.97V51.77H174.355ZM174.355 43.8422V36.2266H181.97V43.8422H174.355ZM173.98 43.8422H166.365V36.2266H173.98V43.8422ZM166.053 43.8422H158.437V36.2266H166.053V43.8422ZM158.125 43.8422H150.509V36.2266H158.125V43.8422ZM150.135 43.8422H142.519V36.2266H150.135V43.8422ZM142.207 43.8422H134.591V36.2266H142.207V43.8422ZM134.279 43.8422H126.663V36.2266H134.279V43.8422ZM126.289 43.8422H118.673V36.2266H126.289V43.8422ZM118.361 43.8422H110.745V36.2266H118.361V43.8422ZM110.433 43.8422H102.818V36.2266H110.433V43.8422ZM102.443 43.8422H94.8275V36.2266H102.443V43.8422ZM94.5154 43.8422H86.8997V36.2266H94.5154V43.8422ZM94.5154 44.1543V51.77H86.8997V44.1543H94.5154ZM86.5876 51.77H78.972V44.1543H86.5876V51.77ZM86.5876 52.0821V59.6977H78.972V52.0821H86.5876ZM86.5876 60.0723V67.6879H78.972V60.0723H86.5876ZM86.5876 68V75.6157H78.972V68H86.5876ZM86.5876 75.9278V83.5434H78.972V75.9278H86.5876ZM86.5876 83.918V91.5336H78.972V83.918H86.5876ZM86.5876 91.8457V99.4614H78.972V91.8457H86.5876ZM86.5876 99.7735V107.389H78.972V99.7735H86.5876ZM86.5876 107.764V115.379H78.972V107.764H86.5876ZM86.5876 115.691V123.307H78.972V115.691H86.5876ZM86.5876 123.619V131.235H78.972V123.619H86.5876ZM86.5876 131.609V139.225H78.972V131.609H86.5876ZM86.8997 131.609H94.5154V139.225H86.8997V131.609ZM94.5154 139.537V147.153H86.8997V139.537H94.5154ZM94.8275 139.537H102.443V147.153H94.8275V139.537ZM102.818 139.537H110.433V147.153H102.818V139.537ZM110.745 139.537H118.361V147.153H110.745V139.537ZM118.673 139.537H126.289V147.153H118.673V139.537ZM126.663 139.537H134.279V147.153H126.663V139.537ZM134.591 139.537H142.207V147.153H134.591V139.537ZM142.519 139.537H150.135V147.153H142.519V139.537ZM150.509 139.537H158.125V147.153H150.509V139.537ZM158.437 139.537H166.053V147.153H158.437V139.537ZM166.365 139.537H173.98V147.153H166.365V139.537ZM174.355 139.537H181.97V147.153H174.355V139.537ZM174.355 139.225V131.609H181.97V139.225H174.355ZM182.283 131.609H189.898V139.225H182.283V131.609ZM182.283 131.235V123.619H189.898V131.235H182.283ZM182.283 123.307V115.691H189.898V123.307H182.283ZM182.283 115.379V107.764H189.898V115.379H182.283ZM182.283 107.389V99.7735H189.898V107.389H182.283ZM182.283 99.4614V91.8457H189.898V99.4614H182.283ZM182.283 91.5336V83.918H189.898V91.5336H182.283ZM182.283 83.5434V75.9278H189.898V83.5434H182.283ZM182.283 75.6157V68H189.898V75.6157H182.283ZM182.283 67.6879V60.0723H189.898V67.6879H182.283ZM182.283 59.6977V52.0821H189.898V59.6977H182.283ZM182.283 51.77V44.1543H189.898V51.77H182.283ZM182.283 43.8422V36.2266H189.898V43.8422H182.283ZM182.283 35.852V28.2364H189.898V35.852H182.283ZM181.97 35.852H174.355V28.2364H181.97V35.852ZM173.98 35.852H166.365V28.2364H173.98V35.852ZM166.053 35.852H158.437V28.2364H166.053V35.852ZM158.125 35.852H150.509V28.2364H158.125V35.852ZM150.135 35.852H142.519V28.2364H150.135V35.852ZM142.207 35.852H134.591V28.2364H142.207V35.852ZM134.279 35.852H126.663V28.2364H134.279V35.852ZM126.289 35.852H118.673V28.2364H126.289V35.852ZM118.361 35.852H110.745V28.2364H118.361V35.852ZM110.433 35.852H102.818V28.2364H110.433V35.852ZM102.443 35.852H94.8275V28.2364H102.443V35.852ZM94.5154 35.852H86.8997V28.2364H94.5154V35.852ZM86.5876 35.852H78.972V28.2364H86.5876V35.852ZM86.5876 36.2266V43.8422H78.972V36.2266H86.5876ZM78.5974 43.8422H70.9818V36.2266H78.5974V43.8422ZM78.5974 44.1543V51.77H70.9818V44.1543H78.5974ZM78.5974 52.0821V59.6977H70.9818V52.0821H78.5974ZM78.5974 60.0723V67.6879H70.9818V60.0723H78.5974ZM78.5974 68V75.6157H70.9818V68H78.5974ZM78.5974 75.9278V83.5434H70.9818V75.9278H78.5974ZM78.5974 83.918V91.5336H70.9818V83.918H78.5974ZM78.5974 91.8457V99.4614H70.9818V91.8457H78.5974ZM78.5974 99.7735V107.389H70.9818V99.7735H78.5974ZM78.5974 107.764V115.379H70.9818V107.764H78.5974ZM78.5974 115.691V123.307H70.9818V115.691H78.5974ZM78.5974 123.619V131.235H70.9818V123.619H78.5974ZM78.5974 131.609V139.225H70.9818V131.609H78.5974ZM78.5974 139.537V147.153H70.9818V139.537H78.5974ZM78.972 139.537H86.5876V147.153H78.972V139.537ZM86.5876 147.465V155.081H78.972V147.465H86.5876ZM86.8997 147.465H94.5154V155.081H86.8997V147.465ZM94.8275 147.465H102.443V155.081H94.8275V147.465ZM102.818 147.465H110.433V155.081H102.818V147.465ZM110.745 147.465H118.361V155.081H110.745V147.465ZM118.673 147.465H126.289V155.081H118.673V147.465ZM126.663 147.465H134.279V155.081H126.663V147.465ZM134.591 147.465H142.207V155.081H134.591V147.465ZM142.519 147.465H150.135V155.081H142.519V147.465ZM150.509 147.465H158.125V155.081H150.509V147.465ZM158.437 147.465H166.053V155.081H158.437V147.465ZM166.365 147.465H173.98V155.081H166.365V147.465ZM174.355 147.465H181.97V155.081H174.355V147.465ZM182.283 147.465H189.898V155.081H182.283V147.465ZM182.283 147.153V139.537H189.898V147.153H182.283ZM190.21 139.537H197.826V147.153H190.21V139.537ZM190.21 139.225V131.609H197.826V139.225H190.21ZM190.21 131.235V123.619H197.826V131.235H190.21ZM190.21 123.307V115.691H197.826V123.307H190.21ZM190.21 115.379V107.764H197.826V115.379H190.21ZM190.21 107.389V99.7735H197.826V107.389H190.21ZM190.21 99.4614V91.8457H197.826V99.4614H190.21ZM190.21 91.5336V83.918H197.826V91.5336H190.21ZM190.21 83.5434V75.9278H197.826V83.5434H190.21ZM190.21 75.6157V68H197.826V75.6157H190.21ZM190.21 67.6879V60.0723H197.826V67.6879H190.21ZM190.21 59.6977V52.0821H197.826V59.6977H190.21ZM190.21 51.77V44.1543H197.826V51.77H190.21ZM190.21 43.8422V36.2266H197.826V43.8422H190.21ZM78.5974 28.2364V35.852H70.9818V32.6501C70.9818 30.2124 72.9579 28.2364 75.3955 28.2364H78.5974ZM70.9818 147.465H78.5974V155.081H70.9818V147.465ZM190.21 155.081V147.465H197.826V155.081H190.21Z" fill="white"/>
<rect x="5.75412" y="69.4132" width="103.288" height="34.4293" fill="url(#paint2_linear_6787_1670)"/>
</g>
<path d="M6.90084 62.9917C10.4616 62.9917 13.3481 60.1052 13.3481 56.5445C13.3481 52.9837 10.4616 50.0972 6.90084 50.0972C3.34012 50.0972 0.453583 52.9837 0.453583 56.5445C0.453583 60.1052 3.34012 62.9917 6.90084 62.9917Z" fill="url(#paint3_radial_6787_1670)"/>
<path opacity="0.5" d="M3.17213 56.2298C2.00399 55.511 1.71195 53.8711 2.52066 52.5906C3.30691 51.3102 4.90188 50.8384 6.07002 51.5573C7.23817 52.2761 7.5302 53.916 6.72149 55.1965C5.91277 56.4994 4.31781 56.9487 3.17213 56.2298Z" fill="url(#paint4_radial_6787_1670)"/>
<path d="M101.596 32.7226C104.314 32.7226 106.517 30.5194 106.517 27.8017C106.517 25.0839 104.314 22.8807 101.596 22.8807C98.8785 22.8807 96.6753 25.0839 96.6753 27.8017C96.6753 30.5194 98.8785 32.7226 101.596 32.7226Z" fill="url(#paint5_radial_6787_1670)"/>
<g filter="url(#filter0_i_6787_1670)">
<path d="M93.2994 65.7168C93.2598 65.7067 93.2169 65.6991 93.1899 65.6684C92.7044 65.1185 94.197 58.5562 94.3392 58.0633C95.0682 55.5462 96.2754 53.0965 98.2171 51.2998C99.5912 50.0279 103.262 47.5393 105.168 49.0021C106.773 50.2367 105.269 53.3363 104.529 54.6325C103.202 56.9373 101.247 58.8046 99.5768 60.8486C98.5806 62.0712 97.5799 63.3173 96.5837 64.5398C96.5234 64.6181 96.0792 65.248 95.7135 65.7106C95.4246 66.0761 95.0052 66.1494 94.5536 66.0349C94.0738 65.9134 93.4845 65.7638 93.2994 65.7168Z" fill="url(#paint6_linear_6787_1670)"/>
</g>
<g filter="url(#filter1_i_6787_1670)">
<path d="M95.4693 67.7302C96.2841 67.9055 97.0099 67.213 96.8398 66.3971C95.9041 61.9082 92.8032 50.204 86.2355 52.3366C80.2663 54.2961 93.0944 65.839 94.9528 67.4739C95.1019 67.6052 95.2751 67.6884 95.4693 67.7302Z" fill="url(#paint7_linear_6787_1670)"/>
</g>
<path d="M88.0234 54.6711C88.0234 54.6711 95.7042 64.6962 95.7922 66.8172L88.0234 54.6711Z" fill="#77FFE4" fill-opacity="0.2"/>
<path d="M102.897 50.9797C102.897 50.9797 96.5852 59.0312 95.8991 62.6048L102.897 50.9797Z" fill="#77FFE4" fill-opacity="0.2"/>
<g filter="url(#filter2_d_6787_1670)">
<path d="M20.1942 75.8549V34.6931C20.1942 32.0588 22.319 29.7537 24.7473 29.7537H79.3835C81.8118 29.7537 83.9365 32.0588 83.9365 34.6931V75.8549" fill="#647A8E"/>
</g>
<g filter="url(#filter3_ii_6787_1670)">
<path d="M60.1508 71.774C60.1508 72.9598 59.1896 73.921 58.0039 73.921H46.1263C44.9406 73.921 43.9794 72.9598 43.9794 71.774H14.871V76.0679C14.871 77.356 16.1647 78.2148 18.1052 78.2148H86.025C87.9655 78.2148 89.2592 77.356 89.2592 76.0679V71.774H60.1508Z" fill="#92A2B1"/>
</g>
<path d="M87.6948 66.115C87.5871 64.9976 88.4655 64.0304 89.5881 64.0304H99.5018C100.624 64.0304 101.503 64.9976 101.395 66.115L100.273 77.7549C100.179 78.7302 99.3593 79.4744 98.3796 79.4744H90.7103C89.7306 79.4744 88.9111 78.7302 88.8171 77.7549L87.6948 66.115Z" fill="url(#paint8_linear_6787_1670)"/>
<g filter="url(#filter4_i_6787_1670)">
<rect x="86.9851" y="64.0305" width="15.1205" height="3.72248" rx="0.951008" fill="url(#paint9_linear_6787_1670)"/>
</g>
<path d="M43.2043 49.7315L40.6016 50.9248C40.5551 50.9461 40.5558 51.0123 40.6026 51.0326L52.6857 56.2862C52.7007 56.2927 52.7178 56.2927 52.7328 56.2862L64.8147 51.0332C64.8617 51.0127 64.8621 50.9462 64.8154 50.9252L62.1612 49.7315" stroke="#CFD7DF" stroke-width="1.69745" stroke-linecap="round"/>
<path d="M43.2043 55.4684L40.6016 56.6618C40.5551 56.6831 40.5558 56.7492 40.6026 56.7696L52.6857 62.0231C52.7007 62.0296 52.7178 62.0296 52.7328 62.0231L64.8147 56.7701C64.8617 56.7497 64.8621 56.6831 64.8154 56.6621L62.1612 55.4684" stroke="#CFD7DF" stroke-width="1.69745" stroke-linecap="round"/>
<path d="M52.7345 50.8157C52.7195 50.8222 52.7024 50.8222 52.6874 50.8157L40.6076 45.5636C40.5603 45.543 40.5603 45.4759 40.6076 45.4553L52.6874 40.2032C52.7024 40.1967 52.7195 40.1967 52.7345 40.2032L64.8143 45.4553C64.8616 45.4759 64.8616 45.543 64.8143 45.5636L52.7345 50.8157Z" stroke="#CFD7DF" stroke-width="1.69745" stroke-linecap="round"/>
<defs>
<filter id="filter0_i_6787_1670" x="93.0932" y="48.2066" width="13.6992" height="17.8781" filterUnits="userSpaceOnUse" color-interpolation-filters="sRGB">
<feFlood flood-opacity="0" result="BackgroundImageFix"/>
<feBlend mode="normal" in="SourceGraphic" in2="BackgroundImageFix" result="shape"/>
<feColorMatrix in="SourceAlpha" type="matrix" values="0 0 0 0 0 0 0 0 0 0 0 0 0 0 0 0 0 0 127 0" result="hardAlpha"/>
<feOffset dx="0.912017" dy="-0.34864"/>
<feGaussianBlur stdDeviation="1.18876"/>
<feComposite in2="hardAlpha" operator="arithmetic" k2="-1" k3="1"/>
<feColorMatrix type="matrix" values="0 0 0 0 0.113056 0 0 0 0 0.616667 0 0 0 0 0.58645 0 0 0 1 0"/>
<feBlend mode="normal" in2="shape" result="effect1_innerShadow_6787_1670"/>
</filter>
<filter id="filter1_i_6787_1670" x="84.6641" y="51.7308" width="13.1127" height="16.0267" filterUnits="userSpaceOnUse" color-interpolation-filters="sRGB">
<feFlood flood-opacity="0" result="BackgroundImageFix"/>
<feBlend mode="normal" in="SourceGraphic" in2="BackgroundImageFix" result="shape"/>
<feColorMatrix in="SourceAlpha" type="matrix" values="0 0 0 0 0 0 0 0 0 0 0 0 0 0 0 0 0 0 127 0" result="hardAlpha"/>
<feOffset dx="0.912017" dy="-0.34864"/>
<feGaussianBlur stdDeviation="1.18876"/>
<feComposite in2="hardAlpha" operator="arithmetic" k2="-1" k3="1"/>
<feColorMatrix type="matrix" values="0 0 0 0 0.0996528 0 0 0 0 0.683333 0 0 0 0 0.555806 0 0 0 1 0"/>
<feBlend mode="normal" in2="shape" result="effect1_innerShadow_6787_1670"/>
</filter>
<filter id="filter2_d_6787_1670" x="17.6207" y="28.7243" width="68.8893" height="51.2482" filterUnits="userSpaceOnUse" color-interpolation-filters="sRGB">
<feFlood flood-opacity="0" result="BackgroundImageFix"/>
<feColorMatrix in="SourceAlpha" type="matrix" values="0 0 0 0 0 0 0 0 0 0 0 0 0 0 0 0 0 0 127 0" result="hardAlpha"/>
<feOffset dy="1.54411"/>
<feGaussianBlur stdDeviation="1.28676"/>
<feColorMatrix type="matrix" values="0 0 0 0 0 0 0 0 0 0 0 0 0 0 0 0 0 0 0.25 0"/>
<feBlend mode="normal" in2="BackgroundImageFix" result="effect1_dropShadow_6787_1670"/>
<feBlend mode="normal" in="SourceGraphic" in2="effect1_dropShadow_6787_1670" result="shape"/>
</filter>
<filter id="filter3_ii_6787_1670" x="14.3563" y="70.8716" width="74.9029" height="7.98774" filterUnits="userSpaceOnUse" color-interpolation-filters="sRGB">
<feFlood flood-opacity="0" result="BackgroundImageFix"/>
<feBlend mode="normal" in="SourceGraphic" in2="BackgroundImageFix" result="shape"/>
<feColorMatrix in="SourceAlpha" type="matrix" values="0 0 0 0 0 0 0 0 0 0 0 0 0 0 0 0 0 0 127 0" result="hardAlpha"/>
<feOffset dx="-0.514705" dy="-0.902419"/>
<feGaussianBlur stdDeviation="0.772057"/>
<feComposite in2="hardAlpha" operator="arithmetic" k2="-1" k3="1"/>
<feColorMatrix type="matrix" values="0 0 0 0 0.392157 0 0 0 0 0.478431 0 0 0 0 0.556863 0 0 0 1 0"/>
<feBlend mode="normal" in2="shape" result="effect1_innerShadow_6787_1670"/>
<feColorMatrix in="SourceAlpha" type="matrix" values="0 0 0 0 0 0 0 0 0 0 0 0 0 0 0 0 0 0 127 0" result="hardAlpha"/>
<feOffset dy="0.644585"/>
<feGaussianBlur stdDeviation="0.322293"/>
<feComposite in2="hardAlpha" operator="arithmetic" k2="-1" k3="1"/>
<feColorMatrix type="matrix" values="0 0 0 0 0.706597 0 0 0 0 0.81502 0 0 0 0 0.916667 0 0 0 1 0"/>
<feBlend mode="normal" in2="effect1_innerShadow_6787_1670" result="effect2_innerShadow_6787_1670"/>
</filter>
<filter id="filter4_i_6787_1670" x="86.9851" y="63.7452" width="15.5009" height="4.00778" filterUnits="userSpaceOnUse" color-interpolation-filters="sRGB">
<feFlood flood-opacity="0" result="BackgroundImageFix"/>
<feBlend mode="normal" in="SourceGraphic" in2="BackgroundImageFix" result="shape"/>
<feColorMatrix in="SourceAlpha" type="matrix" values="0 0 0 0 0 0 0 0 0 0 0 0 0 0 0 0 0 0 127 0" result="hardAlpha"/>
<feOffset dx="0.380403" dy="-0.285303"/>
<feGaussianBlur stdDeviation="0.332853"/>
<feComposite in2="hardAlpha" operator="arithmetic" k2="-1" k3="1"/>
<feColorMatrix type="matrix" values="0 0 0 0 0.833333 0 0 0 0 0.604343 0 0 0 0 0.0555555 0 0 0 1 0"/>
<feBlend mode="normal" in2="shape" result="effect1_innerShadow_6787_1670"/>
</filter>
<linearGradient id="paint0_linear_6787_1670" x1="57.3984" y1="0.937164" x2="57.3984" y2="101.934" gradientUnits="userSpaceOnUse">
<stop stop-color="#B5EFFF"/>
<stop offset="1" stop-color="#E7F8FE"/>
</linearGradient>
<linearGradient id="paint1_linear_6787_1670" x1="57.0818" y1="0.937103" x2="57.0818" y2="101.344" gradientUnits="userSpaceOnUse">
<stop stop-color="#B5EFFF"/>
<stop offset="1" stop-color="#EDFBFF"/>
</linearGradient>
<linearGradient id="paint2_linear_6787_1670" x1="51.1874" y1="69.4132" x2="65.4319" y2="112.68" gradientUnits="userSpaceOnUse">
<stop stop-color="#7FD3E9"/>
<stop offset="1" stop-color="#7FD3E9" stop-opacity="0"/>
</linearGradient>
<radialGradient id="paint3_radial_6787_1670" cx="0" cy="0" r="1" gradientUnits="userSpaceOnUse" gradientTransform="translate(3.8341 53.941) rotate(-15.1772) scale(12.2948)">
<stop stop-color="#FFF1CF"/>
<stop offset="0.1875" stop-color="#FFE4A2"/>
<stop offset="0.317708" stop-color="#FFD364"/>
<stop offset="0.489583" stop-color="#FFD364"/>
<stop offset="0.651042" stop-color="#FFC73A"/>
<stop offset="0.947917" stop-color="#D09500"/>
</radialGradient>
<radialGradient id="paint4_radial_6787_1670" cx="0" cy="0" r="1" gradientUnits="userSpaceOnUse" gradientTransform="translate(4.60442 53.9123) rotate(121.889) scale(2.69265 2.4522)">
<stop stop-color="white"/>
<stop offset="0.6944" stop-color="white" stop-opacity="0"/>
</radialGradient>
<radialGradient id="paint5_radial_6787_1670" cx="0" cy="0" r="1" gradientUnits="userSpaceOnUse" gradientTransform="translate(99.2555 25.8145) rotate(-15.1772) scale(9.38424)">
<stop stop-color="#E6C6FF"/>
<stop offset="0.1875" stop-color="#C07DF5"/>
<stop offset="0.317708" stop-color="#BE6FFC"/>
<stop offset="0.489583" stop-color="#B56AF0"/>
<stop offset="0.651042" stop-color="#A745F4"/>
<stop offset="0.947917" stop-color="#9F3DED"/>
</radialGradient>
<linearGradient id="paint6_linear_6787_1670" x1="107.734" y1="48.8302" x2="93.4925" y2="61.6196" gradientUnits="userSpaceOnUse">
<stop stop-color="#BAFFF1" stop-opacity="0.26"/>
<stop offset="0.682292" stop-color="#4DC7AE"/>
<stop offset="0.96875" stop-color="#06896F"/>
</linearGradient>
<linearGradient id="paint7_linear_6787_1670" x1="101.398" y1="53.7931" x2="92.737" y2="68.3789" gradientUnits="userSpaceOnUse">
<stop stop-color="#B7FDEF"/>
<stop offset="0.682292" stop-color="#09B794"/>
<stop offset="0.96875" stop-color="#7EE0CC"/>
</linearGradient>
<linearGradient id="paint8_linear_6787_1670" x1="101.596" y1="74.1974" x2="88.5002" y2="74.1974" gradientUnits="userSpaceOnUse">
<stop offset="0.0989583" stop-color="#FFEEC5"/>
<stop offset="0.606776" stop-color="#FACD63"/>
<stop offset="0.838542" stop-color="#EAAF23"/>
<stop offset="0.984375" stop-color="#EDB52F"/>
</linearGradient>
<linearGradient id="paint9_linear_6787_1670" x1="102.106" y1="66.481" x2="88.0641" y2="66.481" gradientUnits="userSpaceOnUse">
<stop offset="0.0989583" stop-color="#FFEEC5"/>
<stop offset="0.606776" stop-color="#FCBD27"/>
<stop offset="0.984375" stop-color="#EFB222"/>
</linearGradient>
</defs>
</svg>
