<svg width="114" height="112" viewBox="0 0 114 112" fill="none" xmlns="http://www.w3.org/2000/svg">
<mask id="mask0_6787_1520" style="mask-type:alpha" maskUnits="userSpaceOnUse" x="2" y="0" width="112" height="112">
<path d="M57.6978 111.373C88.429 111.373 113.342 86.4605 113.342 55.7294C113.342 24.9982 88.429 0.0856323 57.6978 0.0856323C26.9667 0.0856323 2.05411 24.9982 2.05411 55.7294C2.05411 86.4605 26.9667 111.373 57.6978 111.373Z" fill="url(#paint0_linear_6787_1520)"/>
</mask>
<g mask="url(#mask0_6787_1520)">
<path d="M57.3489 110.723C88.2726 110.723 113.341 85.9558 113.341 55.4042C113.341 24.8526 88.2726 0.0855713 57.3489 0.0855713C26.4252 0.0855713 1.35666 24.8526 1.35666 55.4042C1.35666 85.9558 26.4252 110.723 57.3489 110.723Z" fill="url(#paint1_linear_6787_1520)"/>
<path d="M76.3365 29.8225C74.1191 29.8225 72.3214 31.6201 72.3214 33.8376V170.348H212.847V29.8225H76.3365ZM212.434 38.5581H204.043V30.1664H212.434V38.5581ZM142.756 91.109V82.7174H151.148V91.109H142.756ZM151.148 91.5217V99.9133H142.756V91.5217H151.148ZM142.412 91.109H134.021V82.7174H142.412V91.109ZM142.412 91.5217V99.9133H134.021V91.5217H142.412ZM133.608 99.9133H125.216V91.5217H133.608V99.9133ZM133.608 100.257V108.649H125.216V100.257H133.608ZM134.021 100.257H142.412V108.649H134.021V100.257ZM142.412 108.993V117.384H134.021V108.993H142.412ZM142.756 108.993H151.148V117.384H142.756V108.993ZM142.756 108.649V100.257H151.148V108.649H142.756ZM151.492 100.257H159.883V108.649H151.492V100.257ZM151.492 99.9133V91.5217H159.883V99.9133H151.492ZM151.492 91.109V82.7174H159.883V91.109H151.492ZM151.492 82.3734V73.9818H159.883V82.3734H151.492ZM151.148 82.3734H142.756V73.9818H151.148V82.3734ZM142.412 82.3734H134.021V73.9818H142.412V82.3734ZM133.608 82.3734H125.216V73.9818H133.608V82.3734ZM133.608 82.7174V91.109H125.216V82.7174H133.608ZM124.872 91.109H116.481V82.7174H124.872V91.109ZM124.872 91.5217V99.9133H116.481V91.5217H124.872ZM124.872 100.257V108.649H116.481V100.257H124.872ZM124.872 108.993V117.384H116.481V108.993H124.872ZM125.216 108.993H133.608V117.384H125.216V108.993ZM133.608 117.797V126.189H125.216V117.797H133.608ZM134.021 117.797H142.412V126.189H134.021V117.797ZM142.756 117.797H151.148V126.189H142.756V117.797ZM151.492 117.797H159.883V126.189H151.492V117.797ZM151.492 117.384V108.993H159.883V117.384H151.492ZM160.296 108.993H168.688V117.384H160.296V108.993ZM160.296 108.649V100.257H168.688V108.649H160.296ZM160.296 99.9133V91.5217H168.688V99.9133H160.296ZM160.296 91.109V82.7174H168.688V91.109H160.296ZM160.296 82.3734V73.9818H168.688V82.3734H160.296ZM160.296 73.6379V65.2462H168.688V73.6379H160.296ZM159.883 73.6379H151.492V65.2462H159.883V73.6379ZM151.148 73.6379H142.756V65.2462H151.148V73.6379ZM142.412 73.6379H134.021V65.2462H142.412V73.6379ZM133.608 73.6379H125.216V65.2462H133.608V73.6379ZM124.872 73.6379H116.481V65.2462H124.872V73.6379ZM124.872 73.9818V82.3734H116.481V73.9818H124.872ZM116.137 82.3734H107.745V73.9818H116.137V82.3734ZM116.137 82.7174V91.109H107.745V82.7174H116.137ZM116.137 91.5217V99.9133H107.745V91.5217H116.137ZM116.137 100.257V108.649H107.745V100.257H116.137ZM116.137 108.993V117.384H107.745V108.993H116.137ZM116.137 117.797V126.189H107.745V117.797H116.137ZM116.481 117.797H124.872V126.189H116.481V117.797ZM124.872 126.533V134.924H116.481V126.533H124.872ZM125.216 126.533H133.608V134.924H125.216V126.533ZM134.021 126.533H142.412V134.924H134.021V126.533ZM142.756 126.533H151.148V134.924H142.756V126.533ZM151.492 126.533H159.883V134.924H151.492V126.533ZM160.296 126.533H168.688V134.924H160.296V126.533ZM160.296 126.189V117.797H168.688V126.189H160.296ZM169.032 117.797H177.423V126.189H169.032V117.797ZM169.032 117.384V108.993H177.423V117.384H169.032ZM169.032 108.649V100.257H177.423V108.649H169.032ZM169.032 99.9133V91.5217H177.423V99.9133H169.032ZM169.032 91.109V82.7174H177.423V91.109H169.032ZM169.032 82.3734V73.9818H177.423V82.3734H169.032ZM169.032 73.6379V65.2462H177.423V73.6379H169.032ZM169.032 64.8335V56.4419H177.423V64.8335H169.032ZM168.688 64.8335H160.296V56.4419H168.688V64.8335ZM159.883 64.8335H151.492V56.4419H159.883V64.8335ZM151.148 64.8335H142.756V56.4419H151.148V64.8335ZM142.412 64.8335H134.021V56.4419H142.412V64.8335ZM133.608 64.8335H125.216V56.4419H133.608V64.8335ZM124.872 64.8335H116.481V56.4419H124.872V64.8335ZM116.137 64.8335H107.745V56.4419H116.137V64.8335ZM116.137 65.2462V73.6379H107.745V65.2462H116.137ZM107.332 73.6379H98.9408V65.2462H107.332V73.6379ZM107.332 73.9818V82.3734H98.9408V73.9818H107.332ZM107.332 82.7174V91.109H98.9408V82.7174H107.332ZM107.332 91.5217V99.9133H98.9408V91.5217H107.332ZM107.332 100.257V108.649H98.9408V100.257H107.332ZM107.332 108.993V117.384H98.9408V108.993H107.332ZM107.332 117.797V126.189H98.9408V117.797H107.332ZM107.332 126.533V134.924H98.9408V126.533H107.332ZM107.745 126.533H116.137V134.924H107.745V126.533ZM116.137 135.268V143.66H107.745V135.268H116.137ZM116.481 135.268H124.872V143.66H116.481V135.268ZM125.216 135.268H133.608V143.66H125.216V135.268ZM134.021 135.268H142.412V143.66H134.021V135.268ZM142.756 135.268H151.148V143.66H142.756V135.268ZM151.492 135.268H159.883V143.66H151.492V135.268ZM160.296 135.268H168.688V143.66H160.296V135.268ZM169.032 135.268H177.423V143.66H169.032V135.268ZM169.032 134.924V126.533H177.423V134.924H169.032ZM177.767 126.533H186.159V134.924H177.767V126.533ZM177.767 126.189V117.797H186.159V126.189H177.767ZM177.767 117.384V108.993H186.159V117.384H177.767ZM177.767 108.649V100.257H186.159V108.649H177.767ZM177.767 99.9133V91.5217H186.159V99.9133H177.767ZM177.767 91.109V82.7174H186.159V91.109H177.767ZM177.767 82.3734V73.9818H186.159V82.3734H177.767ZM177.767 73.6379V65.2462H186.159V73.6379H177.767ZM177.767 64.8335V56.4419H186.159V64.8335H177.767ZM177.767 56.098V47.7063H186.159V56.098H177.767ZM177.423 56.098H169.032V47.7063H177.423V56.098ZM168.688 56.098H160.296V47.7063H168.688V56.098ZM159.883 56.098H151.492V47.7063H159.883V56.098ZM151.148 56.098H142.756V47.7063H151.148V56.098ZM142.412 56.098H134.021V47.7063H142.412V56.098ZM133.608 56.098H125.216V47.7063H133.608V56.098ZM124.872 56.098H116.481V47.7063H124.872V56.098ZM116.137 56.098H107.745V47.7063H116.137V56.098ZM107.332 56.098H98.9408V47.7063H107.332V56.098ZM107.332 56.4419V64.8335H98.9408V56.4419H107.332ZM98.5969 64.8335H90.2053V56.4419H98.5969V64.8335ZM98.5969 65.2462V73.6379H90.2053V65.2462H98.5969ZM98.5969 73.9818V82.3734H90.2053V73.9818H98.5969ZM98.5969 82.7174V91.109H90.2053V82.7174H98.5969ZM98.5969 91.5217V99.9133H90.2053V91.5217H98.5969ZM98.5969 100.257V108.649H90.2053V100.257H98.5969ZM98.5969 108.993V117.384H90.2053V108.993H98.5969ZM98.5969 117.797V126.189H90.2053V117.797H98.5969ZM98.5969 126.533V134.924H90.2053V126.533H98.5969ZM98.5969 135.268V143.66H90.2053V135.268H98.5969ZM98.9408 135.268H107.332V143.66H98.9408V135.268ZM107.332 144.073V152.464H98.9408V144.073H107.332ZM107.745 144.073H116.137V152.464H107.745V144.073ZM116.481 144.073H124.872V152.464H116.481V144.073ZM125.216 144.073H133.608V152.464H125.216V144.073ZM134.021 144.073H142.412V152.464H134.021V144.073ZM142.756 144.073H151.148V152.464H142.756V144.073ZM151.492 144.073H159.883V152.464H151.492V144.073ZM160.296 144.073H168.688V152.464H160.296V144.073ZM169.032 144.073H177.423V152.464H169.032V144.073ZM177.767 144.073H186.159V152.464H177.767V144.073ZM177.767 143.66V135.268H186.159V143.66H177.767ZM186.572 135.268H194.963V143.66H186.572V135.268ZM186.572 134.924V126.533H194.963V134.924H186.572ZM186.572 126.189V117.797H194.963V126.189H186.572ZM186.572 117.384V108.993H194.963V117.384H186.572ZM186.572 108.649V100.257H194.963V108.649H186.572ZM186.572 99.9133V91.5217H194.963V99.9133H186.572ZM186.572 91.109V82.7174H194.963V91.109H186.572ZM186.572 82.3734V73.9818H194.963V82.3734H186.572ZM186.572 73.6379V65.2462H194.963V73.6379H186.572ZM186.572 64.8335V56.4419H194.963V64.8335H186.572ZM186.572 56.098V47.7063H194.963V56.098H186.572ZM186.572 47.3624V38.9708H194.963V47.3624H186.572ZM186.159 47.3624H177.767V38.9708H186.159V47.3624ZM177.423 47.3624H169.032V38.9708H177.423V47.3624ZM168.688 47.3624H160.296V38.9708H168.688V47.3624ZM159.883 47.3624H151.492V38.9708H159.883V47.3624ZM151.148 47.3624H142.756V38.9708H151.148V47.3624ZM142.412 47.3624H134.021V38.9708H142.412V47.3624ZM133.608 47.3624H125.216V38.9708H133.608V47.3624ZM124.872 47.3624H116.481V38.9708H124.872V47.3624ZM116.137 47.3624H107.745V38.9708H116.137V47.3624ZM107.332 47.3624H98.9408V38.9708H107.332V47.3624ZM98.5969 47.3624H90.2053V38.9708H98.5969V47.3624ZM98.5969 47.7063V56.098H90.2053V47.7063H98.5969ZM89.8613 56.098H81.4697V47.7063H89.8613V56.098ZM89.8613 56.4419V64.8335H81.4697V56.4419H89.8613ZM89.8613 65.2462V73.6379H81.4697V65.2462H89.8613ZM89.8613 73.9818V82.3734H81.4697V73.9818H89.8613ZM89.8613 82.7174V91.109H81.4697V82.7174H89.8613ZM89.8613 91.5217V99.9133H81.4697V91.5217H89.8613ZM89.8613 100.257V108.649H81.4697V100.257H89.8613ZM89.8613 108.993V117.384H81.4697V108.993H89.8613ZM89.8613 117.797V126.189H81.4697V117.797H89.8613ZM89.8613 126.533V134.924H81.4697V126.533H89.8613ZM89.8613 135.268V143.66H81.4697V135.268H89.8613ZM89.8613 144.073V152.464H81.4697V144.073H89.8613ZM90.2053 144.073H98.5969V152.464H90.2053V144.073ZM98.5969 152.808V161.2H90.2053V152.808H98.5969ZM98.9408 152.808H107.332V161.2H98.9408V152.808ZM107.745 152.808H116.137V161.2H107.745V152.808ZM116.481 152.808H124.872V161.2H116.481V152.808ZM125.216 152.808H133.608V161.2H125.216V152.808ZM134.021 152.808H142.412V161.2H134.021V152.808ZM142.756 152.808H151.148V161.2H142.756V152.808ZM151.492 152.808H159.883V161.2H151.492V152.808ZM160.296 152.808H168.688V161.2H160.296V152.808ZM169.032 152.808H177.423V161.2H169.032V152.808ZM177.767 152.808H186.159V161.2H177.767V152.808ZM186.572 152.808H194.963V161.2H186.572V152.808ZM186.572 152.464V144.073H194.963V152.464H186.572ZM195.307 144.073H203.699V152.464H195.307V144.073ZM195.307 143.66V135.268H203.699V143.66H195.307ZM195.307 134.924V126.533H203.699V134.924H195.307ZM195.307 126.189V117.797H203.699V126.189H195.307ZM195.307 117.384V108.993H203.699V117.384H195.307ZM195.307 108.649V100.257H203.699V108.649H195.307ZM195.307 99.9133V91.5217H203.699V99.9133H195.307ZM195.307 91.109V82.7174H203.699V91.109H195.307ZM195.307 82.3734V73.9818H203.699V82.3734H195.307ZM195.307 73.6379V65.2462H203.699V73.6379H195.307ZM195.307 64.8335V56.4419H203.699V64.8335H195.307ZM195.307 56.098V47.7063H203.699V56.098H195.307ZM195.307 47.3624V38.9708H203.699V47.3624H195.307ZM195.307 38.5581V30.1664H203.699V38.5581H195.307ZM194.963 38.5581H186.572V30.1664H194.963V38.5581ZM186.159 38.5581H177.767V30.1664H186.159V38.5581ZM177.423 38.5581H169.032V30.1664H177.423V38.5581ZM168.688 38.5581H160.296V30.1664H168.688V38.5581ZM159.883 38.5581H151.492V30.1664H159.883V38.5581ZM151.148 38.5581H142.756V30.1664H151.148V38.5581ZM142.412 38.5581H134.021V30.1664H142.412V38.5581ZM133.608 38.5581H125.216V30.1664H133.608V38.5581ZM124.872 38.5581H116.481V30.1664H124.872V38.5581ZM116.137 38.5581H107.745V30.1664H116.137V38.5581ZM107.332 38.5581H98.9408V30.1664H107.332V38.5581ZM98.5969 38.5581H90.2053V30.1664H98.5969V38.5581ZM89.8613 38.5581H81.4697V30.1664H89.8613V38.5581ZM89.8613 38.9708V47.3624H81.4697V38.9708H89.8613ZM81.057 47.3624H72.6654V38.9708H81.057V47.3624ZM81.057 47.7063V56.098H72.6654V47.7063H81.057ZM81.057 56.4419V64.8335H72.6654V56.4419H81.057ZM81.057 65.2462V73.6379H72.6654V65.2462H81.057ZM81.057 73.9818V82.3734H72.6654V73.9818H81.057ZM81.057 82.7174V91.109H72.6654V82.7174H81.057ZM81.057 91.5217V99.9133H72.6654V91.5217H81.057ZM81.057 100.257V108.649H72.6654V100.257H81.057ZM81.057 108.993V117.384H72.6654V108.993H81.057ZM81.057 117.797V126.189H72.6654V117.797H81.057ZM81.057 126.533V134.924H72.6654V126.533H81.057ZM81.057 135.268V143.66H72.6654V135.268H81.057ZM81.057 144.073V152.464H72.6654V144.073H81.057ZM81.057 152.808V161.2H72.6654V152.808H81.057ZM81.4697 152.808H89.8613V161.2H81.4697V152.808ZM89.8613 161.544V169.935H81.4697V161.544H89.8613ZM90.2053 161.544H98.5969V169.935H90.2053V161.544ZM98.9408 161.544H107.332V169.935H98.9408V161.544ZM107.745 161.544H116.137V169.935H107.745V161.544ZM116.481 161.544H124.872V169.935H116.481V161.544ZM125.216 161.544H133.608V169.935H125.216V161.544ZM134.021 161.544H142.412V169.935H134.021V161.544ZM142.756 161.544H151.148V169.935H142.756V161.544ZM151.492 161.544H159.883V169.935H151.492V161.544ZM160.296 161.544H168.688V169.935H160.296V161.544ZM169.032 161.544H177.423V169.935H169.032V161.544ZM177.767 161.544H186.159V169.935H177.767V161.544ZM186.572 161.544H194.963V169.935H186.572V161.544ZM195.307 161.544H203.699V169.935H195.307V161.544ZM195.307 161.2V152.808H203.699V161.2H195.307ZM204.043 152.808H212.434V161.2H204.043V152.808ZM204.043 152.464V144.073H212.434V152.464H204.043ZM204.043 143.66V135.268H212.434V143.66H204.043ZM204.043 134.924V126.533H212.434V134.924H204.043ZM204.043 126.189V117.797H212.434V126.189H204.043ZM204.043 117.384V108.993H212.434V117.384H204.043ZM204.043 108.649V100.257H212.434V108.649H204.043ZM204.043 99.9133V91.5217H212.434V99.9133H204.043ZM204.043 91.109V82.7174H212.434V91.109H204.043ZM204.043 82.3734V73.9818H212.434V82.3734H204.043ZM204.043 73.6379V65.2462H212.434V73.6379H204.043ZM204.043 64.8335V56.4419H212.434V64.8335H204.043ZM204.043 56.098V47.7063H212.434V56.098H204.043ZM204.043 47.3624V38.9708H212.434V47.3624H204.043ZM81.057 30.1664V38.5581H72.6654V34.1815C72.6654 31.9641 74.463 30.1664 76.6805 30.1664H81.057ZM72.6654 161.544H81.057V169.935H72.6654V161.544ZM204.043 169.935V161.544H212.434V169.935H204.043Z" fill="white"/>
<rect x="0.791107" y="75.5389" width="113.812" height="37.9374" fill="url(#paint2_linear_6787_1520)"/>
</g>
<path d="M7.2634 79.2135C11.1869 79.2135 14.3676 76.0329 14.3676 72.1093C14.3676 68.1858 11.1869 65.0051 7.2634 65.0051C3.33987 65.0051 0.15921 68.1858 0.15921 72.1093C0.15921 76.0329 3.33987 79.2135 7.2634 79.2135Z" fill="url(#paint3_radial_6787_1520)"/>
<path opacity="0.5" d="M3.15469 71.7629C1.86752 70.9708 1.54572 69.1638 2.43684 67.7529C3.30321 66.342 5.06069 65.8221 6.34786 66.6142C7.63503 67.4063 7.95682 69.2133 7.0657 70.6243C6.17459 72.06 4.4171 72.555 3.15469 71.7629Z" fill="url(#paint4_radial_6787_1520)"/>
<g filter="url(#filter0_i_6787_1520)">
<path d="M97.2453 71.4631C97.2093 71.454 97.1708 71.4475 97.1439 71.4218C96.5822 70.8851 98.2438 63.5785 98.4015 63.0325C99.2047 60.2589 100.535 57.5596 102.674 55.5798C104.189 54.1783 108.234 51.4362 110.333 53.048C112.102 54.4084 110.445 57.8239 109.629 59.2521C108.167 61.7918 106.013 63.8493 104.173 66.1015C103.075 67.4487 101.972 68.8218 100.875 70.169C100.803 70.2613 100.247 71.0503 99.8319 71.5639C99.5653 71.8934 99.1788 71.9534 98.7679 71.8494C98.2122 71.7087 97.4524 71.5157 97.2453 71.4631Z" fill="url(#paint5_linear_6787_1520)"/>
</g>
<g filter="url(#filter1_i_6787_1520)">
<path d="M99.6472 73.6855C100.545 73.8787 101.345 73.1156 101.157 72.2166C100.126 67.2703 96.7093 54.3735 89.4725 56.7234C82.895 58.8825 97.0302 71.6016 99.0779 73.4031C99.2423 73.5477 99.4331 73.6394 99.6472 73.6855Z" fill="url(#paint6_linear_6787_1520)"/>
</g>
<path d="M91.4423 59.2946C91.4423 59.2946 99.9057 70.3412 100.003 72.6783L91.4423 59.2946Z" fill="#77FFE4" fill-opacity="0.2"/>
<path d="M107.831 55.227C107.831 55.227 100.876 64.0989 100.12 68.0366L107.831 55.227Z" fill="#77FFE4" fill-opacity="0.2"/>
<path d="M91.0414 71.5038C90.9434 70.4874 91.7425 69.6075 92.7637 69.6075H104.493C105.514 69.6075 106.313 70.4874 106.215 71.5038L104.908 85.061C104.822 85.9482 104.077 86.6252 103.186 86.6252H94.0707C93.1795 86.6252 92.434 85.9482 92.3485 85.061L91.0414 71.5038Z" fill="url(#paint7_linear_6787_1520)"/>
<g filter="url(#filter2_i_6787_1520)">
<rect x="90.2977" y="69.6077" width="16.6612" height="4.10178" rx="0.865124" fill="url(#paint8_linear_6787_1520)"/>
</g>
<g filter="url(#filter3_f_6787_1520)">
<ellipse cx="56.7689" cy="87.561" rx="19.14" ry="0.506635" fill="black" fill-opacity="0.22"/>
</g>
<g filter="url(#filter4_i_6787_1520)">
<path d="M57.3927 29.0031C70.9212 29.2181 83.3365 33.939 93.8914 43.4486C94.8121 44.275 95.5744 45.1694 95.6008 46.4675C95.6273 47.9769 94.9896 49.1505 93.5782 49.7883C92.1103 50.4449 90.7895 50.1656 89.6083 49.0788C86.7245 46.373 83.5178 44.0332 80.061 42.1127C61.7588 32.1012 39.9924 34.6258 24.4941 48.5618C23.796 49.1883 23.1469 49.9015 22.1658 50.0713C20.5167 50.3279 19.1468 49.826 18.3544 48.3053C17.5166 46.6637 17.8525 45.1618 19.2148 43.8863C24.0631 39.3237 29.7059 35.6876 35.864 33.1578C42.5509 30.3767 49.5284 29.0446 57.3927 29.0031Z" fill="#92A2B1"/>
<path d="M58.5208 44.5921C66.3398 44.6751 75.9363 48.6148 83.393 55.6187C85.2421 57.3545 85.4987 59.5583 84.0685 61.0791C82.6383 62.5999 80.4948 62.5093 78.5967 60.7584C65.7663 48.9431 47.7471 48.9469 34.9318 60.7584C33.045 62.5056 30.9204 62.6263 29.4562 61.0678C27.992 59.5093 28.2977 57.3545 30.1355 55.6111C37.4715 48.6487 46.0225 44.5619 58.5208 44.5921Z" fill="#92A2B1"/>
<path d="M56.6841 60.8829C62.9143 60.8452 68.3031 62.9924 72.8616 67.2189C74.7145 68.9397 74.8881 71.1359 73.4013 72.668C71.9145 74.2001 69.9522 74.0567 68.0767 72.351C61.4275 66.3132 52.1255 66.3132 45.4348 72.351C43.548 74.0492 41.5706 74.1624 40.1102 72.653C38.6497 71.1435 38.8423 68.9736 40.6536 67.2C44.7292 63.2339 50.6274 60.9018 56.6841 60.8829Z" fill="#92A2B1"/>
<path d="M61.136 79.4153C61.1222 79.9896 60.9953 80.5557 60.7626 81.081C60.53 81.6063 60.1962 82.0807 59.7803 82.477C59.3643 82.8733 58.8744 83.1838 58.3384 83.3908C57.8025 83.5978 57.231 83.6972 56.6567 83.6833C56.0823 83.6694 55.5163 83.5426 54.991 83.3099C54.4656 83.0773 53.9913 82.7435 53.595 82.3276C53.1987 81.9116 52.8882 81.4217 52.6812 80.8857C52.4742 80.3498 52.3748 79.7783 52.3887 79.204C52.4167 78.044 52.9044 76.9427 53.7445 76.1423C54.5845 75.3419 55.7081 74.9079 56.868 74.936C58.028 74.964 59.1293 75.4517 59.9297 76.2917C60.7301 77.1317 61.1641 78.2553 61.136 79.4153Z" fill="#92A2B1"/>
</g>
<g filter="url(#filter5_dii_6787_1520)">
<rect x="68.1528" y="7.44238" width="35.1764" height="35.1764" rx="17.5882" fill="#FF7067"/>
</g>
<g filter="url(#filter6_d_6787_1520)">
<path d="M85.7281 28.7995C86.5299 28.7995 87.1823 28.1544 87.1913 27.3527L87.3031 17.4067C87.3129 16.53 86.6049 15.814 85.7281 15.814C84.8514 15.814 84.1434 16.53 84.1532 17.4067L84.265 27.3527C84.274 28.1544 84.9264 28.7995 85.7281 28.7995ZM85.716 30.7449C84.7676 30.7449 83.9894 31.5231 83.9894 32.5201C83.9894 33.4685 84.7676 34.2467 85.716 34.2467C86.6887 34.2467 87.4912 33.4685 87.4912 32.5201C87.4912 31.5231 86.6887 30.7449 85.716 30.7449Z" fill="white"/>
</g>
<defs>
<filter id="filter0_i_6787_1520" x="97.0284" y="52.2384" width="14.9198" height="19.6576" filterUnits="userSpaceOnUse" color-interpolation-filters="sRGB">
<feFlood flood-opacity="0" result="BackgroundImageFix"/>
<feBlend mode="normal" in="SourceGraphic" in2="BackgroundImageFix" result="shape"/>
<feColorMatrix in="SourceAlpha" type="matrix" values="0 0 0 0 0 0 0 0 0 0 0 0 0 0 0 0 0 0 127 0" result="hardAlpha"/>
<feOffset dx="0.829654" dy="-0.317155"/>
<feGaussianBlur stdDeviation="1.08141"/>
<feComposite in2="hardAlpha" operator="arithmetic" k2="-1" k3="1"/>
<feColorMatrix type="matrix" values="0 0 0 0 0.113056 0 0 0 0 0.616667 0 0 0 0 0.58645 0 0 0 1 0"/>
<feBlend mode="normal" in2="shape" result="effect1_innerShadow_6787_1520"/>
</filter>
<filter id="filter1_i_6787_1520" x="87.7409" y="56.1229" width="14.2735" height="17.5928" filterUnits="userSpaceOnUse" color-interpolation-filters="sRGB">
<feFlood flood-opacity="0" result="BackgroundImageFix"/>
<feBlend mode="normal" in="SourceGraphic" in2="BackgroundImageFix" result="shape"/>
<feColorMatrix in="SourceAlpha" type="matrix" values="0 0 0 0 0 0 0 0 0 0 0 0 0 0 0 0 0 0 127 0" result="hardAlpha"/>
<feOffset dx="0.829654" dy="-0.317155"/>
<feGaussianBlur stdDeviation="1.08141"/>
<feComposite in2="hardAlpha" operator="arithmetic" k2="-1" k3="1"/>
<feColorMatrix type="matrix" values="0 0 0 0 0.0996528 0 0 0 0 0.683333 0 0 0 0 0.555806 0 0 0 1 0"/>
<feBlend mode="normal" in2="shape" result="effect1_innerShadow_6787_1520"/>
</filter>
<filter id="filter2_i_6787_1520" x="90.2977" y="69.3481" width="17.0072" height="4.36134" filterUnits="userSpaceOnUse" color-interpolation-filters="sRGB">
<feFlood flood-opacity="0" result="BackgroundImageFix"/>
<feBlend mode="normal" in="SourceGraphic" in2="BackgroundImageFix" result="shape"/>
<feColorMatrix in="SourceAlpha" type="matrix" values="0 0 0 0 0 0 0 0 0 0 0 0 0 0 0 0 0 0 127 0" result="hardAlpha"/>
<feOffset dx="0.34605" dy="-0.259537"/>
<feGaussianBlur stdDeviation="0.302793"/>
<feComposite in2="hardAlpha" operator="arithmetic" k2="-1" k3="1"/>
<feColorMatrix type="matrix" values="0 0 0 0 0.833333 0 0 0 0 0.604343 0 0 0 0 0.0555555 0 0 0 1 0"/>
<feBlend mode="normal" in2="shape" result="effect1_innerShadow_6787_1520"/>
</filter>
<filter id="filter3_f_6787_1520" x="36.5102" y="85.9356" width="40.5175" height="3.25081" filterUnits="userSpaceOnUse" color-interpolation-filters="sRGB">
<feFlood flood-opacity="0" result="BackgroundImageFix"/>
<feBlend mode="normal" in="SourceGraphic" in2="BackgroundImageFix" result="shape"/>
<feGaussianBlur stdDeviation="0.559377" result="effect1_foregroundBlur_6787_1520"/>
</filter>
<filter id="filter4_i_6787_1520" x="17.8117" y="28.383" width="77.7899" height="55.3016" filterUnits="userSpaceOnUse" color-interpolation-filters="sRGB">
<feFlood flood-opacity="0" result="BackgroundImageFix"/>
<feBlend mode="normal" in="SourceGraphic" in2="BackgroundImageFix" result="shape"/>
<feColorMatrix in="SourceAlpha" type="matrix" values="0 0 0 0 0 0 0 0 0 0 0 0 0 0 0 0 0 0 127 0" result="hardAlpha"/>
<feOffset dx="-0.0872016" dy="-0.6201"/>
<feGaussianBlur stdDeviation="0.484453"/>
<feComposite in2="hardAlpha" operator="arithmetic" k2="-1" k3="1"/>
<feColorMatrix type="matrix" values="0 0 0 0 0.438437 0 0 0 0 0.508921 0 0 0 0 0.575 0 0 0 1 0"/>
<feBlend mode="normal" in2="shape" result="effect1_innerShadow_6787_1520"/>
</filter>
<filter id="filter5_dii_6787_1520" x="67.3419" y="6.95584" width="36.7983" height="37.2848" filterUnits="userSpaceOnUse" color-interpolation-filters="sRGB">
<feFlood flood-opacity="0" result="BackgroundImageFix"/>
<feColorMatrix in="SourceAlpha" type="matrix" values="0 0 0 0 0 0 0 0 0 0 0 0 0 0 0 0 0 0 127 0" result="hardAlpha"/>
<feOffset dy="0.81091"/>
<feGaussianBlur stdDeviation="0.405455"/>
<feColorMatrix type="matrix" values="0 0 0 0 0 0 0 0 0 0 0 0 0 0 0 0 0 0 0.25 0"/>
<feBlend mode="normal" in2="BackgroundImageFix" result="effect1_dropShadow_6787_1520"/>
<feBlend mode="normal" in="SourceGraphic" in2="effect1_dropShadow_6787_1520" result="shape"/>
<feColorMatrix in="SourceAlpha" type="matrix" values="0 0 0 0 0 0 0 0 0 0 0 0 0 0 0 0 0 0 127 0" result="hardAlpha"/>
<feOffset dy="0.729819"/>
<feGaussianBlur stdDeviation="0.283818"/>
<feComposite in2="hardAlpha" operator="arithmetic" k2="-1" k3="1"/>
<feColorMatrix type="matrix" values="0 0 0 0 1 0 0 0 0 0.753043 0 0 0 0 0.7375 0 0 0 1 0"/>
<feBlend mode="normal" in2="shape" result="effect2_innerShadow_6787_1520"/>
<feColorMatrix in="SourceAlpha" type="matrix" values="0 0 0 0 0 0 0 0 0 0 0 0 0 0 0 0 0 0 127 0" result="hardAlpha"/>
<feOffset dx="-0.081091" dy="-0.729819"/>
<feGaussianBlur stdDeviation="0.243273"/>
<feComposite in2="hardAlpha" operator="arithmetic" k2="-1" k3="1"/>
<feColorMatrix type="matrix" values="0 0 0 0 0.854167 0 0 0 0 0.365726 0 0 0 0 0.334549 0 0 0 1 0"/>
<feBlend mode="normal" in2="effect2_innerShadow_6787_1520" result="effect3_innerShadow_6787_1520"/>
</filter>
<filter id="filter6_d_6787_1520" x="82.9789" y="15.814" width="5.52282" height="20.4538" filterUnits="userSpaceOnUse" color-interpolation-filters="sRGB">
<feFlood flood-opacity="0" result="BackgroundImageFix"/>
<feColorMatrix in="SourceAlpha" type="matrix" values="0 0 0 0 0 0 0 0 0 0 0 0 0 0 0 0 0 0 127 0" result="hardAlpha"/>
<feOffset dy="1.01054"/>
<feGaussianBlur stdDeviation="0.50527"/>
<feColorMatrix type="matrix" values="0 0 0 0 0 0 0 0 0 0 0 0 0 0 0 0 0 0 0.25 0"/>
<feBlend mode="normal" in2="BackgroundImageFix" result="effect1_dropShadow_6787_1520"/>
<feBlend mode="normal" in="SourceGraphic" in2="effect1_dropShadow_6787_1520" result="shape"/>
</filter>
<linearGradient id="paint0_linear_6787_1520" x1="57.6978" y1="0.0856323" x2="57.6978" y2="111.373" gradientUnits="userSpaceOnUse">
<stop stop-color="#B5EFFF"/>
<stop offset="1" stop-color="#E7F8FE"/>
</linearGradient>
<linearGradient id="paint1_linear_6787_1520" x1="57.3489" y1="0.0855713" x2="57.3489" y2="110.723" gradientUnits="userSpaceOnUse">
<stop stop-color="#B5EFFF"/>
<stop offset="1" stop-color="#EDFBFF"/>
</linearGradient>
<linearGradient id="paint2_linear_6787_1520" x1="50.8538" y1="75.5389" x2="66.5497" y2="123.214" gradientUnits="userSpaceOnUse">
<stop stop-color="#7FD3E9"/>
<stop offset="1" stop-color="#7FD3E9" stop-opacity="0"/>
</linearGradient>
<radialGradient id="paint3_radial_6787_1520" cx="0" cy="0" r="1" gradientUnits="userSpaceOnUse" gradientTransform="translate(3.88419 69.2406) rotate(-15.1772) scale(13.5476)">
<stop stop-color="#FFF1CF"/>
<stop offset="0.1875" stop-color="#FFE4A2"/>
<stop offset="0.317708" stop-color="#FFD364"/>
<stop offset="0.489583" stop-color="#FFD364"/>
<stop offset="0.651042" stop-color="#FFC73A"/>
<stop offset="0.947917" stop-color="#D09500"/>
</radialGradient>
<radialGradient id="paint4_radial_6787_1520" cx="0" cy="0" r="1" gradientUnits="userSpaceOnUse" gradientTransform="translate(4.73292 69.2093) rotate(121.889) scale(2.96701 2.70207)">
<stop stop-color="white"/>
<stop offset="0.6944" stop-color="white" stop-opacity="0"/>
</radialGradient>
<linearGradient id="paint5_linear_6787_1520" x1="113.161" y1="52.8586" x2="97.4684" y2="66.9511" gradientUnits="userSpaceOnUse">
<stop stop-color="#BAFFF1" stop-opacity="0.26"/>
<stop offset="0.682292" stop-color="#4DC7AE"/>
<stop offset="0.96875" stop-color="#06896F"/>
</linearGradient>
<linearGradient id="paint6_linear_6787_1520" x1="106.18" y1="58.3283" x2="96.6364" y2="74.4003" gradientUnits="userSpaceOnUse">
<stop stop-color="#B7FDEF"/>
<stop offset="0.682292" stop-color="#09B794"/>
<stop offset="0.96875" stop-color="#7EE0CC"/>
</linearGradient>
<linearGradient id="paint7_linear_6787_1520" x1="106.398" y1="80.8105" x2="91.9675" y2="80.8105" gradientUnits="userSpaceOnUse">
<stop offset="0.0989583" stop-color="#FFEEC5"/>
<stop offset="0.606776" stop-color="#FACD63"/>
<stop offset="0.838542" stop-color="#EAAF23"/>
<stop offset="0.984375" stop-color="#EDB52F"/>
</linearGradient>
<linearGradient id="paint8_linear_6787_1520" x1="106.959" y1="72.3079" x2="91.4866" y2="72.3079" gradientUnits="userSpaceOnUse">
<stop offset="0.0989583" stop-color="#FFEEC5"/>
<stop offset="0.606776" stop-color="#FCBD27"/>
<stop offset="0.984375" stop-color="#EFB222"/>
</linearGradient>
</defs>
</svg>
