<svg width="24" height="24" viewBox="0 0 24 24" fill="none" xmlns="http://www.w3.org/2000/svg">
<path fill-rule="evenodd" clip-rule="evenodd" d="M12 4C16.4183 4 20 7.58172 20 12C20 16.4183 16.4183 20 12 20C7.58172 20 4 16.4183 4 12C4 7.58172 7.58172 4 12 4ZM9.78396 8.97584C9.56606 8.75794 9.19865 8.75233 8.97549 8.97549L8.91109 9.05292C8.76028 9.27221 8.77731 9.58543 8.97584 9.78396L11.3989 12.2069L8.97584 14.632C8.77731 14.8305 8.76028 15.1437 8.91109 15.363L8.97549 15.4405C9.19865 15.6636 9.56606 15.658 9.78396 15.4401L12.2069 13.016L14.632 15.4401C14.8257 15.6338 15.1375 15.6598 15.3611 15.5064L15.4405 15.4405L15.5049 15.363C15.6557 15.1437 15.6386 14.8305 15.4401 14.632L13.016 12.2069L15.4401 9.78396C15.6386 9.58543 15.6557 9.27221 15.5049 9.05292L15.4405 8.97549C15.2173 8.75233 14.8499 8.75794 14.632 8.97584L12.2069 11.3989L9.78396 8.97584Z" fill="#3B4854"/>
</svg>
