<svg width="24" height="24" viewBox="0 0 24 24" fill="none" xmlns="http://www.w3.org/2000/svg">
<path fill-rule="evenodd" clip-rule="evenodd" d="M16.045 4.85592C12.9178 2.00316 8.1002 2.11365 5.10708 5.10677C2.11396 8.09989 2.00347 12.9175 4.85622 16.0447C7.66784 19.1268 12.3782 19.493 15.6294 16.9119L19.6605 20.943L19.6614 20.9439C19.8305 21.1159 20.0616 21.2129 20.3029 21.213C20.5413 21.2139 20.7695 21.1169 20.9343 20.9449C21.1098 20.779 21.2104 20.5488 21.2128 20.3071C21.2152 20.0639 21.118 19.8303 20.9438 19.6606L20.9425 19.6594L16.9122 15.6291C19.4933 12.3779 19.1271 7.66753 16.045 4.85592ZM8.37164 5.05365C10.6542 4.10183 13.2853 4.61979 15.0368 6.3657C16.7883 8.11162 17.3146 10.7411 16.37 13.0267C15.4255 15.3121 13.1965 16.8028 10.7236 16.803C7.35875 16.7977 4.62932 14.077 4.61328 10.7122C4.60552 8.23922 6.08918 6.00544 8.37164 5.05365Z" fill="#6F8396"/>
</svg>
