<svg width="24" height="24" viewBox="0 0 24 24" fill="none" xmlns="http://www.w3.org/2000/svg">
<path fill-rule="evenodd" clip-rule="evenodd" d="M12 22C17.5228 22 22 17.5228 22 12C22 6.47715 17.5228 2 12 2C6.47715 2 2 6.47715 2 12C2 17.5228 6.47715 22 12 22ZM10.5041 13.6294L16.1959 8.27932C16.6086 7.90689 17.2659 7.90689 17.6787 8.27932C17.8839 8.46033 18 8.71148 18 8.97414C18 9.23679 17.8839 9.48795 17.6787 9.66896L11.1782 15.7139C10.7636 16.0954 10.0949 16.0954 9.68034 15.7139L6.31023 12.5733C6.04267 12.3251 5.93818 11.9632 6.03611 11.6241C6.13405 11.2851 6.41953 11.0202 6.78502 10.9293C7.15052 10.8385 7.5405 10.9354 7.80806 11.1837L10.5041 13.6294Z" fill="#2E66D0"/>
</svg>
