<svg width="24" height="24" viewBox="0 0 24 24" fill="none" xmlns="http://www.w3.org/2000/svg">
<path d="M20 12C20 12.1857 19.9262 12.3637 19.795 12.495C19.6637 12.6263 19.4857 12.7 19.3 12.7H4.7C4.51435 12.7 4.3363 12.6263 4.20503 12.495C4.07375 12.3637 4 12.1857 4 12C4 11.8143 4.07375 11.6363 4.20503 11.505C4.3363 11.3737 4.51435 11.3 4.7 11.3H19.3C19.3919 11.3 19.483 11.3181 19.5679 11.3533C19.6528 11.3885 19.73 11.44 19.795 11.505C19.86 11.57 19.9115 11.6472 19.9467 11.7321C19.9819 11.817 20 11.9081 20 12ZM19.3 16.6H4.7C4.51435 16.6 4.3363 16.6737 4.20503 16.805C4.07375 16.9363 4 17.1143 4 17.3C4 17.4857 4.07375 17.6637 4.20503 17.795C4.3363 17.9262 4.51435 18 4.7 18H19.3C19.4857 18 19.6637 17.9262 19.795 17.795C19.9262 17.6637 20 17.4857 20 17.3C20 17.1143 19.9262 16.9363 19.795 16.805C19.6637 16.6737 19.4857 16.6 19.3 16.6ZM4.7 7.4H19.3C19.4857 7.4 19.6637 7.32625 19.795 7.19497C19.9262 7.0637 20 6.88565 20 6.7C20 6.51435 19.9262 6.3363 19.795 6.20503C19.6637 6.07375 19.4857 6 19.3 6H4.7C4.51435 6 4.3363 6.07375 4.20503 6.20503C4.07375 6.3363 4 6.51435 4 6.7C4 6.88565 4.07375 7.0637 4.20503 7.19497C4.3363 7.32625 4.51435 7.4 4.7 7.4Z" fill="#475867"/>
</svg>
