<svg width="24" height="24" viewBox="0 0 24 24" fill="none" xmlns="http://www.w3.org/2000/svg">
<circle cx="12" cy="12" r="10" fill="#E0F5F1"/>
<path d="M12 2C10.0222 2 8.08879 2.58649 6.4443 3.6853C4.79981 4.78412 3.51809 6.3459 2.76121 8.17316C2.00433 10.0004 1.8063 12.0111 2.19215 13.9509C2.578 15.8907 3.53041 17.6725 4.92894 19.0711C6.32746 20.4696 8.10929 21.422 10.0491 21.8078C11.9889 22.1937 13.9996 21.9957 15.8268 21.2388C17.6541 20.4819 19.2159 19.2002 20.3147 17.5557C21.4135 15.9112 22 13.9778 22 12C22 9.34783 20.9464 6.8043 19.0711 4.92893C17.1957 3.05357 14.6522 2 12 2V2ZM12 20.25C10.3683 20.25 8.77325 19.7661 7.41655 18.8596C6.05984 17.9531 5.00242 16.6646 4.378 15.1571C3.75357 13.6496 3.5902 11.9908 3.90853 10.3905C4.22685 8.79016 5.01259 7.32015 6.16637 6.16637C7.32016 5.01259 8.79016 4.22685 10.3905 3.90852C11.9908 3.59019 13.6496 3.75357 15.1571 4.37799C16.6646 5.00242 17.9531 6.05984 18.8596 7.41654C19.7661 8.77325 20.25 10.3683 20.25 12C20.2467 14.187 19.3764 16.2835 17.83 17.83C16.2835 19.3764 14.187 20.2467 12 20.25ZM17 12C17 12.2321 16.9078 12.4546 16.7437 12.6187C16.5796 12.7828 16.3571 12.875 16.125 12.875H12.875V16.125C12.875 16.3571 12.7828 16.5796 12.6187 16.7437C12.4546 16.9078 12.2321 17 12 17C11.7679 17 11.5454 16.9078 11.3813 16.7437C11.2172 16.5796 11.125 16.3571 11.125 16.125V12.875H7.875C7.64294 12.875 7.42038 12.7828 7.25628 12.6187C7.09219 12.4546 7 12.2321 7 12C7 11.7679 7.09219 11.5454 7.25628 11.3813C7.42038 11.2172 7.64294 11.125 7.875 11.125H11.125V7.875C11.125 7.64293 11.2172 7.42037 11.3813 7.25628C11.5454 7.09219 11.7679 7 12 7C12.2321 7 12.4546 7.09219 12.6187 7.25628C12.7828 7.42037 12.875 7.64293 12.875 7.875V11.125H16.125C16.3571 11.125 16.5796 11.2172 16.7437 11.3813C16.9078 11.5454 17 11.7679 17 12Z" fill="#00A886"/>
</svg>
