<svg width="24" height="24" viewBox="0 0 24 24" fill="none" xmlns="http://www.w3.org/2000/svg">
<path d="M19.2044 3.81H16.6694V2.4C16.6694 1.905 16.2644 1.5 15.7694 1.5C15.2744 1.5 14.8694 1.905 14.8694 2.4V3.81H8.62937V2.4C8.62937 1.905 8.22437 1.5 7.72937 1.5C7.23437 1.5 6.82937 1.905 6.82937 2.4V3.81H4.27937C2.59937 3.81 1.23438 5.175 1.23438 6.855V19.47C1.23438 21.15 2.59937 22.515 4.27937 22.515H19.2044C20.8844 22.515 22.2494 21.15 22.2494 19.47V6.84C22.2494 5.16 20.8844 3.795 19.2044 3.795V3.81ZM4.29437 5.595H6.84437V7.05C6.84437 7.545 7.24937 7.95 7.74437 7.95C8.23937 7.95 8.64437 7.545 8.64437 7.05V5.595H14.8844V7.05C14.8844 7.545 15.2894 7.95 15.7844 7.95C16.2794 7.95 16.6844 7.545 16.6844 7.05V5.595H19.2194C19.9094 5.595 20.4644 6.15 20.4644 6.84V9.6H3.04937V6.84C3.04937 6.15 3.60437 5.595 4.29437 5.595ZM19.2194 20.7H4.29437C3.60437 20.7 3.04937 20.145 3.04937 19.455V11.4H20.4494V19.455C20.4494 20.145 19.8944 20.7 19.2044 20.7H19.2194Z" fill="#3B4854"/>
</svg>
